<svg xmlns="http://www.w3.org/2000/svg" viewBox="0 0 180 56" role="img" aria-labelledby="title"><title id="title">Pinterest</title><circle cx="28" cy="28" r="22" fill="#E60023"/><path fill="#fff" d="M29 12c-9 0-14 6.5-14 12 0 4.1 1.6 7.7 5 9 .5.2.9 0 1-.5l.5-2c.2-.6.1-.8-.3-1.3-1-1.3-1.7-3-1.7-5.4 0-6 4.5-11.4 11.7-11.4 6.4 0 9.9 3.9 9.9 9.1 0 6.9-3 12.7-7.6 12.7-2.5 0-4.4-2.1-3.8-4.6.7-3 2.1-6.2 2.1-8.4 0-1.9-1-3.5-3.2-3.5-2.5 0-4.5 2.6-4.5 6 0 2.2.7 3.7.7 3.7l-3 12.6c-.9 3.8-.1 8.4 0 8.9.1.3.4.4.6.2.3-.4 3.7-4.6 4.9-8.3.3-1 1.9-7.3 1.9-7.3.9 1.8 3.7 3.4 6.6 3.4 8.7 0 14.6-7.9 14.6-18.5C50.4 18.5 43.6 12 29 12Z" transform="scale(.7) translate(12 12)"/><text x="58" y="36" fill="#E60023" font-family="Georgia,serif" font-size="23" font-weight="700">Pinterest</text></svg>
