<svg xmlns="http://www.w3.org/2000/svg" viewBox="0 0 180 56" role="img" aria-labelledby="title"><title id="title">Reddit</title><circle cx="28" cy="28" r="22" fill="#FF4500"/><path fill="#fff" d="M42 29c0-2-1.7-3.7-3.7-3.7-.9 0-1.7.3-2.3.8-2-1.4-4.7-2.3-7.7-2.5l1.5-6.8 4.7 1a3 3 0 1 0 .5-2l-5.8-1.2c-.7-.2-1.4.3-1.5 1l-1.7 8c-3 .2-5.8 1.1-7.8 2.5a3.7 3.7 0 0 0-6 2.9c0 1.3.7 2.5 1.7 3.2-.1.5-.2 1-.2 1.5 0 5.6 6.3 10.1 14.1 10.1s14.1-4.5 14.1-10.1c0-.5-.1-1-.2-1.5 1.4-.6 2.3-1.8 2.3-3.2Zm-21.8 3.2a2.4 2.4 0 1 1 0-4.8 2.4 2.4 0 0 1 0 4.8Zm13 6.2c-1.5 1.5-3.4 2.1-5.4 2.1s-4-.6-5.4-2.1a1.1 1.1 0 0 1 1.6-1.6c1 1 2.3 1.5 3.8 1.5s2.8-.5 3.8-1.5a1.1 1.1 0 1 1 1.6 1.6Zm2.2-6.2a2.4 2.4 0 1 1 0-4.8 2.4 2.4 0 0 1 0 4.8Z"/><text x="58" y="36" fill="#FF4500" font-family="Arial,sans-serif" font-size="25" font-weight="700">reddit</text></svg>
