<svg xmlns="http://www.w3.org/2000/svg" viewBox="0 0 180 56" role="img" aria-labelledby="title"><title id="title">Shopify</title><path fill="#95BF47" d="m45 16-3-1c0-.3-.2-.6-.4-.8-.7-.7-1.8-.7-2.6-.6-.2 0-.4.1-.6.1-.8-2.2-2.2-4.2-4.7-4.2h-.2C32.8 8.6 32 8 31.2 8c-5.8 0-8.6 7.2-9.5 10.8l-5.4 1.7c-1.7.5-1.7.6-1.9 2.2L11 47.5 38.5 52l10.7-2.3L45 16Z"/><path fill="#5E8E3E" d="m45 16-3-1c0-.3-.2-.6-.4-.8l-3.1 37.8 10.7-2.3L45 16Z"/><path fill="#fff" d="M33.7 24.7c-1.1-.6-2.5-1-3.8-1-3.1 0-3.3 2-3.3 2.5 0 2.7 7.1 3.8 7.1 10.2 0 5-3.2 8.3-7.5 8.3-5.2 0-7.8-3.2-7.8-3.2l1.4-4.6s2.7 2.3 5 2.3c1.5 0 2.2-1.2 2.2-2 0-3.6-5.8-3.8-5.8-9.7 0-4.9 3.5-9.7 10.6-9.7 2.7 0 4 .8 4 .8l-2.1 6.1Z"/><text x="58" y="37" fill="#008060" font-family="Arial,sans-serif" font-size="27" font-weight="700">shopify</text></svg>
