<svg xmlns="http://www.w3.org/2000/svg" viewBox="0 0 180 56" role="img" aria-labelledby="title"><title id="title">TikTok</title><defs><linearGradient id="word" x1="0" x2="1"><stop stop-color="#25F4EE"/><stop offset=".52" stop-color="#00A4C6"/><stop offset="1" stop-color="#FE2C55"/></linearGradient></defs><path fill="#25F4EE" d="M31 9h7c.6 7 4.4 11 11 11v7c-4 0-7.4-1.2-10-3.2V39c0 9-7 14-14 14a14 14 0 0 1 0-28v7a7 7 0 1 0 7 7V9h-1Z"/><path fill="#FE2C55" d="M27 6h7c.6 7 4.4 11 11 11v7c-4 0-7.4-1.2-10-3.2V36c0 9-7 14-14 14a14 14 0 0 1 0-28v7a7 7 0 1 0 7 7V6h-1Z" opacity=".9"/><text x="58" y="37" fill="url(#word)" font-family="Arial,sans-serif" font-size="27" font-weight="700">TikTok</text></svg>
