<svg xmlns="http://www.w3.org/2000/svg" viewBox="0 0 180 56" role="img" aria-labelledby="title"><title id="title">WordPress</title><circle cx="28" cy="28" r="21" fill="#21759B"/><circle cx="28" cy="28" r="16.5" fill="none" stroke="#fff" stroke-width="2"/><path fill="#fff" d="M13.8 22.2h8.7v2h-1.8l5.2 14.4 3.8-11-1.2-3.4h-2.3v-2h9.4v2h-2l5 13.8 1.7-5.8c1.2-4 .7-6.2-1-8.4-.6-.8-1.2-1.8-1.2-3 0-1.8 1.4-3.5 3.5-3.5h.5A17 17 0 0 0 15 19.6l-1.2 2.6Zm1 5.8a17 17 0 0 0 9.6 15.4L14.8 28Zm14.5 16.8a17 17 0 0 0 7.8-2l-4.8-13.2-3 15.2Z"/><text x="58" y="36" fill="#21759B" font-family="Georgia,serif" font-size="22" font-weight="700">WordPress</text></svg>
